<mxfile host="app.diagrams.net" agent="Mozilla/5.0 (X11; Linux x86_64) AppleWebKit/537.36 (KHTML, like Gecko) Chrome/126.0.0.0 Safari/537.36" version="24.7.7">
  <diagram name="PÃ¡gina-1" id="Nd7OYLYbeYjH9-XzFsc4">
    <mxGraphModel dx="2876" dy="2292" grid="1" gridSize="10" guides="1" tooltips="1" connect="1" arrows="1" fold="1" page="1" pageScale="1" pageWidth="827" pageHeight="1169" math="0" shadow="0">
      <root>
        <mxCell id="0" />
        <mxCell id="1" parent="0" />
        <mxCell id="_TRqi5g4rZKSvp7vSnuN-2" value="AWS Cloud" style="sketch=0;outlineConnect=0;gradientColor=none;html=1;whiteSpace=wrap;fontSize=12;fontStyle=0;shape=mxgraph.aws4.group;grIcon=mxgraph.aws4.group_aws_cloud;strokeColor=#AAB7B8;fillColor=none;verticalAlign=top;align=left;spacingLeft=30;fontColor=#AAB7B8;dashed=0;" vertex="1" parent="1">
          <mxGeometry x="130" y="-210" width="1000" height="770" as="geometry" />
        </mxCell>
        <mxCell id="_TRqi5g4rZKSvp7vSnuN-4" value="" style="sketch=0;outlineConnect=0;fontColor=#232F3E;gradientColor=none;fillColor=#232F3D;strokeColor=none;dashed=0;verticalLabelPosition=bottom;verticalAlign=top;align=center;html=1;fontSize=12;fontStyle=0;aspect=fixed;pointerEvents=1;shape=mxgraph.aws4.users;" vertex="1" parent="1">
          <mxGeometry x="-191" y="310" width="68" height="68" as="geometry" />
        </mxCell>
        <mxCell id="_TRqi5g4rZKSvp7vSnuN-12" style="edgeStyle=orthogonalEdgeStyle;rounded=0;orthogonalLoop=1;jettySize=auto;html=1;" edge="1" parent="1" source="_TRqi5g4rZKSvp7vSnuN-5" target="_TRqi5g4rZKSvp7vSnuN-10">
          <mxGeometry relative="1" as="geometry" />
        </mxCell>
        <mxCell id="_TRqi5g4rZKSvp7vSnuN-5" value="" style="sketch=0;outlineConnect=0;fontColor=#232F3E;gradientColor=none;fillColor=#232F3D;strokeColor=none;dashed=0;verticalLabelPosition=bottom;verticalAlign=top;align=center;html=1;fontSize=12;fontStyle=0;aspect=fixed;pointerEvents=1;shape=mxgraph.aws4.client;" vertex="1" parent="1">
          <mxGeometry x="-190" y="114.5" width="78" height="76" as="geometry" />
        </mxCell>
        <mxCell id="_TRqi5g4rZKSvp7vSnuN-8" style="edgeStyle=orthogonalEdgeStyle;rounded=0;orthogonalLoop=1;jettySize=auto;html=1;" edge="1" parent="1" source="_TRqi5g4rZKSvp7vSnuN-6" target="_TRqi5g4rZKSvp7vSnuN-4">
          <mxGeometry relative="1" as="geometry" />
        </mxCell>
        <mxCell id="_TRqi5g4rZKSvp7vSnuN-6" value="Client&lt;div&gt;&lt;br&gt;&lt;/div&gt;" style="text;html=1;align=center;verticalAlign=middle;resizable=0;points=[];autosize=1;strokeColor=none;fillColor=none;" vertex="1" parent="1">
          <mxGeometry x="-182" y="193" width="50" height="40" as="geometry" />
        </mxCell>
        <mxCell id="_TRqi5g4rZKSvp7vSnuN-7" value="User" style="text;html=1;align=center;verticalAlign=middle;resizable=0;points=[];autosize=1;strokeColor=none;fillColor=none;" vertex="1" parent="1">
          <mxGeometry x="-182" y="387" width="50" height="30" as="geometry" />
        </mxCell>
        <mxCell id="_TRqi5g4rZKSvp7vSnuN-13" style="edgeStyle=orthogonalEdgeStyle;rounded=0;orthogonalLoop=1;jettySize=auto;html=1;" edge="1" parent="1" source="_TRqi5g4rZKSvp7vSnuN-10" target="_TRqi5g4rZKSvp7vSnuN-11">
          <mxGeometry relative="1" as="geometry" />
        </mxCell>
        <mxCell id="_TRqi5g4rZKSvp7vSnuN-10" value="" style="outlineConnect=0;dashed=0;verticalLabelPosition=bottom;verticalAlign=top;align=center;html=1;shape=mxgraph.aws3.router;fillColor=#F58534;gradientColor=none;" vertex="1" parent="1">
          <mxGeometry x="-50" y="120" width="61" height="64" as="geometry" />
        </mxCell>
        <mxCell id="_TRqi5g4rZKSvp7vSnuN-11" value="" style="outlineConnect=0;dashed=0;verticalLabelPosition=bottom;verticalAlign=top;align=center;html=1;shape=mxgraph.aws3.cloudfront;fillColor=#F58536;gradientColor=none;" vertex="1" parent="1">
          <mxGeometry x="70" y="120" width="50" height="65" as="geometry" />
        </mxCell>
        <mxCell id="_TRqi5g4rZKSvp7vSnuN-17" style="edgeStyle=orthogonalEdgeStyle;rounded=0;orthogonalLoop=1;jettySize=auto;html=1;" edge="1" parent="1" source="_TRqi5g4rZKSvp7vSnuN-14" target="_TRqi5g4rZKSvp7vSnuN-15">
          <mxGeometry relative="1" as="geometry" />
        </mxCell>
        <mxCell id="_TRqi5g4rZKSvp7vSnuN-21" style="edgeStyle=orthogonalEdgeStyle;rounded=0;orthogonalLoop=1;jettySize=auto;html=1;" edge="1" parent="1" source="_TRqi5g4rZKSvp7vSnuN-14" target="_TRqi5g4rZKSvp7vSnuN-19">
          <mxGeometry relative="1" as="geometry" />
        </mxCell>
        <mxCell id="_TRqi5g4rZKSvp7vSnuN-14" value="" style="sketch=0;points=[[0,0,0],[0.25,0,0],[0.5,0,0],[0.75,0,0],[1,0,0],[0,1,0],[0.25,1,0],[0.5,1,0],[0.75,1,0],[1,1,0],[0,0.25,0],[0,0.5,0],[0,0.75,0],[1,0.25,0],[1,0.5,0],[1,0.75,0]];outlineConnect=0;fontColor=#232F3E;fillColor=#ED7100;strokeColor=#ffffff;dashed=0;verticalLabelPosition=bottom;verticalAlign=top;align=center;html=1;fontSize=12;fontStyle=0;aspect=fixed;shape=mxgraph.aws4.resourceIcon;resIcon=mxgraph.aws4.elastic_load_balancing;" vertex="1" parent="1">
          <mxGeometry x="170" y="120" width="61" height="61" as="geometry" />
        </mxCell>
        <mxCell id="_TRqi5g4rZKSvp7vSnuN-24" style="edgeStyle=orthogonalEdgeStyle;rounded=0;orthogonalLoop=1;jettySize=auto;html=1;" edge="1" parent="1" source="_TRqi5g4rZKSvp7vSnuN-15" target="_TRqi5g4rZKSvp7vSnuN-23">
          <mxGeometry relative="1" as="geometry" />
        </mxCell>
        <mxCell id="_TRqi5g4rZKSvp7vSnuN-15" value="Auto Scaling group" style="points=[[0,0],[0.25,0],[0.5,0],[0.75,0],[1,0],[1,0.25],[1,0.5],[1,0.75],[1,1],[0.75,1],[0.5,1],[0.25,1],[0,1],[0,0.75],[0,0.5],[0,0.25]];outlineConnect=0;gradientColor=none;html=1;whiteSpace=wrap;fontSize=12;fontStyle=0;container=1;pointerEvents=0;collapsible=0;recursiveResize=0;shape=mxgraph.aws4.groupCenter;grIcon=mxgraph.aws4.group_auto_scaling_group;grStroke=1;strokeColor=#D86613;fillColor=none;verticalAlign=top;align=center;fontColor=#D86613;dashed=1;spacingTop=25;" vertex="1" parent="1">
          <mxGeometry x="290" y="-120" width="130" height="130" as="geometry" />
        </mxCell>
        <mxCell id="_TRqi5g4rZKSvp7vSnuN-16" style="edgeStyle=orthogonalEdgeStyle;rounded=0;orthogonalLoop=1;jettySize=auto;html=1;entryX=0;entryY=0.5;entryDx=0;entryDy=0;entryPerimeter=0;" edge="1" parent="1" source="_TRqi5g4rZKSvp7vSnuN-11" target="_TRqi5g4rZKSvp7vSnuN-14">
          <mxGeometry relative="1" as="geometry" />
        </mxCell>
        <mxCell id="_TRqi5g4rZKSvp7vSnuN-26" style="edgeStyle=orthogonalEdgeStyle;rounded=0;orthogonalLoop=1;jettySize=auto;html=1;" edge="1" parent="1" source="_TRqi5g4rZKSvp7vSnuN-19" target="_TRqi5g4rZKSvp7vSnuN-25">
          <mxGeometry relative="1" as="geometry" />
        </mxCell>
        <mxCell id="_TRqi5g4rZKSvp7vSnuN-19" value="Auto Scaling group" style="points=[[0,0],[0.25,0],[0.5,0],[0.75,0],[1,0],[1,0.25],[1,0.5],[1,0.75],[1,1],[0.75,1],[0.5,1],[0.25,1],[0,1],[0,0.75],[0,0.5],[0,0.25]];outlineConnect=0;gradientColor=none;html=1;whiteSpace=wrap;fontSize=12;fontStyle=0;container=1;pointerEvents=0;collapsible=0;recursiveResize=0;shape=mxgraph.aws4.groupCenter;grIcon=mxgraph.aws4.group_auto_scaling_group;grStroke=1;strokeColor=#D86613;fillColor=none;verticalAlign=top;align=center;fontColor=#D86613;dashed=1;spacingTop=25;" vertex="1" parent="1">
          <mxGeometry x="370" y="270" width="130" height="130" as="geometry" />
        </mxCell>
        <mxCell id="_TRqi5g4rZKSvp7vSnuN-22" value="" style="dashed=0;outlineConnect=0;html=1;align=center;labelPosition=center;verticalLabelPosition=bottom;verticalAlign=top;shape=mxgraph.weblogos.aws" vertex="1" parent="1">
          <mxGeometry x="970" y="-230" width="63.6" height="58.400000000000006" as="geometry" />
        </mxCell>
        <mxCell id="_TRqi5g4rZKSvp7vSnuN-34" style="edgeStyle=orthogonalEdgeStyle;rounded=0;orthogonalLoop=1;jettySize=auto;html=1;entryX=1;entryY=0;entryDx=0;entryDy=0;" edge="1" parent="1" source="_TRqi5g4rZKSvp7vSnuN-23" target="_TRqi5g4rZKSvp7vSnuN-19">
          <mxGeometry relative="1" as="geometry" />
        </mxCell>
        <mxCell id="_TRqi5g4rZKSvp7vSnuN-23" value="" style="sketch=0;outlineConnect=0;fontColor=#232F3E;gradientColor=none;fillColor=#7AA116;strokeColor=none;dashed=0;verticalLabelPosition=bottom;verticalAlign=top;align=center;html=1;fontSize=12;fontStyle=0;aspect=fixed;pointerEvents=1;shape=mxgraph.aws4.bucket_with_objects;" vertex="1" parent="1">
          <mxGeometry x="640" y="-249.6" width="75" height="78" as="geometry" />
        </mxCell>
        <mxCell id="_TRqi5g4rZKSvp7vSnuN-33" style="edgeStyle=orthogonalEdgeStyle;rounded=0;orthogonalLoop=1;jettySize=auto;html=1;" edge="1" parent="1" source="_TRqi5g4rZKSvp7vSnuN-25" target="_TRqi5g4rZKSvp7vSnuN-29">
          <mxGeometry relative="1" as="geometry" />
        </mxCell>
        <mxCell id="_TRqi5g4rZKSvp7vSnuN-25" value="" style="sketch=0;points=[[0,0,0],[0.25,0,0],[0.5,0,0],[0.75,0,0],[1,0,0],[0,1,0],[0.25,1,0],[0.5,1,0],[0.75,1,0],[1,1,0],[0,0.25,0],[0,0.5,0],[0,0.75,0],[1,0.25,0],[1,0.5,0],[1,0.75,0]];outlineConnect=0;fontColor=#232F3E;fillColor=#DD344C;strokeColor=#ffffff;dashed=0;verticalLabelPosition=bottom;verticalAlign=top;align=center;html=1;fontSize=12;fontStyle=0;aspect=fixed;shape=mxgraph.aws4.resourceIcon;resIcon=mxgraph.aws4.guardduty;" vertex="1" parent="1">
          <mxGeometry x="680" y="310" width="78" height="78" as="geometry" />
        </mxCell>
        <mxCell id="_TRqi5g4rZKSvp7vSnuN-40" style="edgeStyle=orthogonalEdgeStyle;rounded=0;orthogonalLoop=1;jettySize=auto;html=1;" edge="1" parent="1" source="_TRqi5g4rZKSvp7vSnuN-27" target="_TRqi5g4rZKSvp7vSnuN-2">
          <mxGeometry relative="1" as="geometry" />
        </mxCell>
        <mxCell id="_TRqi5g4rZKSvp7vSnuN-41" style="edgeStyle=orthogonalEdgeStyle;rounded=0;orthogonalLoop=1;jettySize=auto;html=1;" edge="1" parent="1" source="_TRqi5g4rZKSvp7vSnuN-27" target="_TRqi5g4rZKSvp7vSnuN-2">
          <mxGeometry relative="1" as="geometry" />
        </mxCell>
        <mxCell id="_TRqi5g4rZKSvp7vSnuN-42" style="edgeStyle=orthogonalEdgeStyle;rounded=0;orthogonalLoop=1;jettySize=auto;html=1;" edge="1" parent="1" source="_TRqi5g4rZKSvp7vSnuN-27" target="_TRqi5g4rZKSvp7vSnuN-2">
          <mxGeometry relative="1" as="geometry" />
        </mxCell>
        <mxCell id="_TRqi5g4rZKSvp7vSnuN-45" style="edgeStyle=orthogonalEdgeStyle;rounded=0;orthogonalLoop=1;jettySize=auto;html=1;" edge="1" parent="1" source="_TRqi5g4rZKSvp7vSnuN-27" target="_TRqi5g4rZKSvp7vSnuN-19">
          <mxGeometry relative="1" as="geometry">
            <Array as="points">
              <mxPoint x="859" y="90" />
              <mxPoint x="435" y="90" />
            </Array>
          </mxGeometry>
        </mxCell>
        <mxCell id="_TRqi5g4rZKSvp7vSnuN-27" value="" style="verticalLabelPosition=bottom;html=1;verticalAlign=top;align=center;strokeColor=none;fillColor=#00BEF2;shape=mxgraph.azure.sql_database;" vertex="1" parent="1">
          <mxGeometry x="840" y="-150" width="37.5" height="50" as="geometry" />
        </mxCell>
        <mxCell id="_TRqi5g4rZKSvp7vSnuN-28" value="" style="verticalLabelPosition=bottom;html=1;verticalAlign=top;align=center;strokeColor=none;fillColor=#00BEF2;shape=mxgraph.azure.sql_database;" vertex="1" parent="1">
          <mxGeometry x="920" y="233" width="37.5" height="50" as="geometry" />
        </mxCell>
        <mxCell id="_TRqi5g4rZKSvp7vSnuN-43" style="edgeStyle=orthogonalEdgeStyle;rounded=0;orthogonalLoop=1;jettySize=auto;html=1;" edge="1" parent="1" source="_TRqi5g4rZKSvp7vSnuN-29" target="_TRqi5g4rZKSvp7vSnuN-38">
          <mxGeometry relative="1" as="geometry" />
        </mxCell>
        <mxCell id="_TRqi5g4rZKSvp7vSnuN-29" value="" style="outlineConnect=0;dashed=0;verticalLabelPosition=bottom;verticalAlign=top;align=center;html=1;shape=mxgraph.aws3.cloudwatch;fillColor=#759C3E;gradientColor=none;" vertex="1" parent="1">
          <mxGeometry x="770" y="115" width="82.5" height="93" as="geometry" />
        </mxCell>
        <mxCell id="_TRqi5g4rZKSvp7vSnuN-35" value="" style="outlineConnect=0;dashed=0;verticalLabelPosition=bottom;verticalAlign=top;align=center;html=1;shape=mxgraph.aws3.ec2;fillColor=#F58534;gradientColor=none;" vertex="1" parent="1">
          <mxGeometry x="310" y="-80" width="50" height="63" as="geometry" />
        </mxCell>
        <mxCell id="_TRqi5g4rZKSvp7vSnuN-36" style="edgeStyle=orthogonalEdgeStyle;rounded=0;orthogonalLoop=1;jettySize=auto;html=1;exitX=1;exitY=0.86;exitDx=0;exitDy=0;exitPerimeter=0;entryX=0.64;entryY=0.331;entryDx=0;entryDy=0;entryPerimeter=0;" edge="1" parent="1" source="_TRqi5g4rZKSvp7vSnuN-27" target="_TRqi5g4rZKSvp7vSnuN-27">
          <mxGeometry relative="1" as="geometry" />
        </mxCell>
        <mxCell id="_TRqi5g4rZKSvp7vSnuN-37" style="edgeStyle=orthogonalEdgeStyle;rounded=0;orthogonalLoop=1;jettySize=auto;html=1;entryX=0.28;entryY=0.195;entryDx=0;entryDy=0;entryPerimeter=0;" edge="1" parent="1" source="_TRqi5g4rZKSvp7vSnuN-27" target="_TRqi5g4rZKSvp7vSnuN-2">
          <mxGeometry relative="1" as="geometry">
            <Array as="points">
              <mxPoint x="859" y="-80" />
              <mxPoint x="820" y="-80" />
              <mxPoint x="820" y="-150" />
              <mxPoint x="410" y="-150" />
            </Array>
          </mxGeometry>
        </mxCell>
        <mxCell id="_TRqi5g4rZKSvp7vSnuN-38" value="" style="outlineConnect=0;dashed=0;verticalLabelPosition=bottom;verticalAlign=top;align=center;html=1;shape=mxgraph.aws3.sns;fillColor=#D9A741;gradientColor=none;" vertex="1" parent="1">
          <mxGeometry x="1020" y="113" width="76.5" height="76.5" as="geometry" />
        </mxCell>
        <mxCell id="_TRqi5g4rZKSvp7vSnuN-39" style="edgeStyle=orthogonalEdgeStyle;rounded=0;orthogonalLoop=1;jettySize=auto;html=1;entryX=1;entryY=0.5;entryDx=0;entryDy=0;entryPerimeter=0;" edge="1" parent="1" source="_TRqi5g4rZKSvp7vSnuN-29" target="_TRqi5g4rZKSvp7vSnuN-35">
          <mxGeometry relative="1" as="geometry" />
        </mxCell>
        <mxCell id="_TRqi5g4rZKSvp7vSnuN-44" style="edgeStyle=orthogonalEdgeStyle;rounded=0;orthogonalLoop=1;jettySize=auto;html=1;entryX=1;entryY=0.5;entryDx=0;entryDy=0;entryPerimeter=0;" edge="1" parent="1" source="_TRqi5g4rZKSvp7vSnuN-27" target="_TRqi5g4rZKSvp7vSnuN-28">
          <mxGeometry relative="1" as="geometry" />
        </mxCell>
      </root>
    </mxGraphModel>
  </diagram>
</mxfile>
